<?xml version="1.0" encoding="UTF-8" standalone="no" ?>
<!DOCTYPE svg PUBLIC "-//W3C//DTD SVG 1.1//EN" "http://www.w3.org/Graphics/SVG/1.1/DTD/svg11.dtd">
<svg xmlns="http://www.w3.org/2000/svg" xmlns:xlink="http://www.w3.org/1999/xlink" version="1.1" width="868.74" height="24.07" viewBox="0 0 868.74 24.07" xml:space="preserve">
<desc>Created with Fabric.js 5.3.0</desc>
<defs>
</defs>
<g transform="matrix(1.8190984832 0 0 0.0256719642 671.8954051436 12.035)" id="7cdWn5bo9JU15q2ck9F4f"  >
<path style="stroke: rgb(126,129,68); stroke-width: 0; stroke-dasharray: none; stroke-linecap: butt; stroke-dashoffset: 0; stroke-linejoin: miter; stroke-miterlimit: 4; fill: rgb(47,47,47); fill-rule: nonzero; opacity: 1;"  transform=" translate(0, 0)" d="M -108.12044 -108.12044 L 108.12044 -108.12044 L 73.16171 108.12044 L -108.12043 108.12044 z" stroke-linecap="round" />
</g>
<g transform="matrix(-1.8190984832 0 0 0.0256488419 198.6381074072 12.0375)" id="CCadVdUTg8hoc_WKCmn3y"  >
<path style="stroke: rgb(126,129,68); stroke-width: 0; stroke-dasharray: none; stroke-linecap: butt; stroke-dashoffset: 0; stroke-linejoin: miter; stroke-miterlimit: 4; fill: rgb(47,47,47); fill-rule: nonzero; opacity: 1;"  transform=" translate(0, 0)" d="M -108.12044 -108.12044 L 108.12044 -108.12044 L 73.16171 108.12044 L -108.12043 108.12044 z" stroke-linecap="round" />
</g>
<g transform="matrix(0.3842421941 0 0 0.3842421941 434.37 12.035)" id="Z585aSkazRxSmN11EnjUn"  >
<path style="stroke: rgb(228,106,206); stroke-width: 0; stroke-dasharray: none; stroke-linecap: butt; stroke-dashoffset: 0; stroke-linejoin: miter; stroke-miterlimit: 4; fill: rgb(47,47,47); fill-rule: nonzero; opacity: 1;"  transform=" translate(-23.366095, -23.36609)" d="M 0.00001 5.70601 C 0.00001 2.55467 2.5546800000000003 0 5.70602 0 L 41.474740000000004 0 C 44.378350000000005 0 46.73219 2.35384 46.73219 5.25745 L 46.73219 40.88769 C 46.73219 44.11551 44.115520000000004 46.73218 40.8877 46.73218 L 5.969860000000004 46.73218 C 2.672800000000004 46.73218 4.440892098500626e-15 44.05938 4.440892098500626e-15 40.76232 z M 12.99283 31.08909 C 12.99283 32.5528 14.1794 33.73938 15.64312 33.73938 L 31.144750000000002 33.73938 C 32.57773 33.73938 33.73939 32.57772 33.73939 31.14474 L 33.73939 15.326839999999999 C 33.73939 14.03779 32.69441 12.992809999999999 31.40536 12.992809999999999 L 15.525980000000002 12.992809999999999 C 14.126950000000003 12.992809999999999 12.992820000000002 14.12694 12.992820000000002 15.52597 z" stroke-linecap="round" />
</g>
</svg>