<svg xmlns="http://www.w3.org/2000/svg" xmlns:xlink="http://www.w3.org/1999/xlink" version="1.1" xml:space="preserve" viewBox="38.91 26.94 581.12 78.07">
<desc>Created with Fabric.js 5.3.0</desc>
<defs>
</defs>
<g transform="matrix(1 0 0 1 583.0156578543 65.5178930375)" id="b8HoSRppcHJYw3alMHpKb">
<path style="stroke: none; stroke-width: 1; stroke-dasharray: none; stroke-linecap: butt; stroke-dashoffset: 0; stroke-linejoin: miter; stroke-miterlimit: 4; fill: rgb(33,33,33); fill-rule: nonzero; opacity: 1;" transform=" translate(-583.0156578543, -65.5178930375)" d="M 598.25 78 L 585.74 78 Q 585.23 78 585.23 77.49 L 585.21 62.27 C 585.21 62.120883117545695 585.3308831175457 62.00000000000001 585.48 62 L 618.73 62 Q 619.19 62 619.24 62.45 C 619.56 65.31 620.52 67.6 619.73 70.45 C 618.75 74.01 617.74 77.14 617.76 80.93 Q 617.82 90.51 617.76 100.09 Q 617.76 100.59 617.27 100.73 C 602 105.05 584.8 106.76 569.28 102.69 C 555.32 99.03 548.1 88.21 546.5 74.51 C 544.27 55.42 549.02 35.88 569.5 29.48 Q 583.5 25.11 598.5 28.27 Q 601.98 29 605.59 31.12 Q 610.93 34.25 616.26 37.39 Q 616.78 37.69 616.53 38.24 L 609.56 53.26 Q 609.32 53.77 608.8 53.59 Q 599.16 50.4 589.59 47.22 Q 585.31 45.79 582.26 46.07 C 573.33 46.87 566.78 53.88 566.32 62.74 C 565.72 74.17 567.45 85.19 580.77 87.55 Q 589.11 89.03 598.3 86.79 Q 598.75 86.68 598.75 86.22 L 598.76 78.5 Q 598.76 78 598.25 78 Z" stroke-linecap="round"/>
</g>
<g transform="matrix(1 0 0 1 144.755764097 77.6002087753)" id="Jfafq7YyIGRDd9pJ1WRBL">
<path style="stroke: none; stroke-width: 1; stroke-dasharray: none; stroke-linecap: butt; stroke-dashoffset: 0; stroke-linejoin: miter; stroke-miterlimit: 4; fill: rgb(33,33,33); fill-rule: nonzero; opacity: 1;" transform=" translate(-144.755764097, -77.6002087753)" d="M 167.17 60.06 L 160.64 72.78 C 160.5510645010255 72.94990696961725 160.3470486371014 73.02369994167489 160.17 72.95 Q 154.02 70.48 147.9 67.91 C 146.13 67.17 145.3 67.56 143.65 68.24 Q 143.17 68.43 143.17 68.95 L 143.13 103.31 Q 143.13 104 142.44 104 L 124.52 104 C 124.35983742254908 104 124.23 103.86568542494923 124.23 103.7 Q 124.35 88.54 124.17 73.31 C 124.12 69 122.91 65.1 122.24 60.9 C 121.91 58.83 123.33 55.61 123.85 53.56 C 123.93207751261242 53.241953214863585 124.21595224069657 53.01979038418904 124.54 53.02 Q 131 52.98 137.5 53 Q 138.66 53.01 140.12 55.55 Q 140.72 56.61 141.7 55.88 Q 148.99 50.36 158.12 52.62 C 161.58 53.47 164.35 56.98 167.03 59.32 Q 167.39 59.63 167.17 60.06 Z" stroke-linecap="round"/>
</g>
<g transform="matrix(1 0 0 1 337.9169207434 77.4136388487)" id="4mt0NB3uqNB3-hg5LTyof">
<path style="stroke: none; stroke-width: 1; stroke-dasharray: none; stroke-linecap: butt; stroke-dashoffset: 0; stroke-linejoin: miter; stroke-miterlimit: 4; fill: rgb(33,33,33); fill-rule: nonzero; opacity: 1;" transform=" translate(-337.9169207434, -77.4136388487)" d="M 294.48 67.33 Q 293.62 63.71 293.24 59.97 Q 293.19 59.51 293.39 59.1 L 295.99 53.7 C 296.19690517385675 53.27206102824779 296.6281190179784 53.000124369792715 297.1 53 L 311.74 53 Q 312.24 53 312.24 53.5 L 312.25 57.74 C 312.2518273153384 58.018362111763246 312.41180550816233 58.27145579377909 312.6624616797916 58.392535469905106 C 312.9131178514209 58.51361514603112 313.2108167636012 58.48160277744949 313.43 58.31 C 320.37 52.88 327.23 50.31 336.03 53.12 C 339.94 54.38 341.73 56.49 344.18 59.09 Q 344.57 59.49 344.95 59.08 Q 353.75 49.66 366.86 52.44 C 382.2 55.69 380.6 71.53 380.59 83.38 C 380.58 87.51 381.61 91.21 382.44 95.19 C 383.08 98.26 381.89 100.45 381.02 103.25 C 380.87681033972297 103.69643004115869 380.4646982994046 103.9994536002163 380 104 L 361.76 104 C 361.6219288125423 104 361.51 103.8880711874577 361.51 103.75 Q 361.49 90.31 361.51 76.83 Q 361.52 71.89 360.36 69.87 C 358.02 65.77 349.93 65.84 348.11 70.8 Q 347.58 72.25 347.57 76.27 Q 347.55 89.98 347.59 103.63 C 347.59 103.83434535743737 347.4288225099391 103.99999999999997 347.23 104 L 329.25 104 Q 328.7 104 328.69 103.45 Q 328.59 83.05 328.66 75.75 C 328.76 65.7 321.7 65.93 314.71 69.18 C 314.4846916355668 69.28219552986724 314.3399906418614 69.50902411459457 314.34 69.76 L 314.34 103.45 Q 314.34 104 313.79 104 L 295.75 104 C 295.635956909369 104 295.5265847268224 103.95469655864287 295.4459440840898 103.87405591591022 C 295.3653034413571 103.79341527317756 295.32 103.684043090631 295.32 103.57 Q 295.38 88.41 295.38 74.03 Q 295.38 71.08 294.48 67.33 Z" stroke-linecap="round"/>
</g>
<g transform="matrix(1 0 0 1 75.7061891777 65.9853125)" id="AoPe6DaddG3v1elBbeALD">
<path style="stroke: none; stroke-width: 1; stroke-dasharray: none; stroke-linecap: butt; stroke-dashoffset: 0; stroke-linejoin: miter; stroke-miterlimit: 4; fill: rgb(33,33,33); fill-rule: nonzero; opacity: 1;" transform=" translate(-36.7929744501, -38.0355208333)" d="M 71.16679 55.25021 C 68.33346 62.950210000000006 63.40012000000001 68.42021 56.36679000000001 71.66021 C 50.74679000000001 74.24688 44.31679000000001 75.61688000000001 37.07679000000001 75.77021 C 25.42346000000001 76.02354000000001 13.78012000000001 76.11688000000001 2.14679000000001 76.05021 C 1.97411000000001 76.04480000000001 1.83689000000001 75.90758000000001 1.83679000000001 75.74021 C 1.8434600000000099 57.053540000000005 1.8434600000000099 38.343540000000004 1.83679000000001 19.610210000000002 C 1.82679000000001 15.780210000000002 0.9067900000000099 12.270210000000002 0.15679000000000998 8.550210000000002 C -0.44320999999999 5.540210000000002 0.80679000000001 3.3002100000000016 1.74679000000001 0.5702100000000012 C 1.8467900000000101 0.2635400000000012 2.06012000000001 0.1102100000000012 2.38679000000001 0.1102100000000012 C 20.82679000000001 -0.0431199999999988 32.53346000000001 -0.0364599999999988 37.50679000000001 0.13021000000000119 C 55.57679000000001 0.7302100000000011 69.57679000000002 7.65021 72.95679000000001 26.88021 C 73.97679000000001 32.66021 73.46679000000002 39.80021 73.39679000000001 46.04021 C 73.37012000000001 48.20021 72.62679000000001 51.270210000000006 71.16679 55.25021 z M 21.39679 58.73021 C 21.39679 58.917989999999996 21.54901 59.07021 21.73679 59.07021 L 36.34679 59.01021 C 45.97285 58.97672 53.74957 51.24029 53.71679 41.73021 L 53.69679 34.09021 C 53.6811 29.523049999999998 51.82957 25.14927 48.54953 21.931109999999997 C 45.26949 18.712959999999995 40.82965 16.914069999999995 36.20679 16.930209999999995 L 21.59679 16.990209999999994 C 21.40901 16.990209999999994 21.25679 17.142429999999994 21.25679 17.330209999999994 z" stroke-linecap="round"/>
</g>
<g transform="matrix(1 0 0 1 429.1093773242 65.9925925926)" id="PKm6gqBxllACBVTSajnh0">
<path style="stroke: none; stroke-width: 1; stroke-dasharray: none; stroke-linecap: butt; stroke-dashoffset: 0; stroke-linejoin: miter; stroke-miterlimit: 4; fill: rgb(33,33,33); fill-rule: nonzero; opacity: 1;" transform=" translate(-34.6706226758, -38.0074074074)" d="M 36.84125 62.63481 C 36.761250000000004 62.62148 36.691250000000004 62.57148 36.63125 62.48481 C 34.67125 59.438140000000004 32.63458 56.411480000000005 30.521250000000002 53.404810000000005 C 30.351730000000003 53.161080000000005 30.075460000000003 53.015480000000004 29.781250000000004 53.014810000000004 L 21.341250000000002 53.014810000000004 C 21.04125 53.014810000000004 20.891250000000003 53.161480000000005 20.891250000000003 53.45481 C 20.837920000000004 57.91481 21.127920000000003 62.33148 21.761250000000004 66.70481000000001 C 22.241250000000004 69.97481 21.511250000000004 72.46481000000001 20.981250000000003 75.61481 C 20.934580000000004 75.88148000000001 20.77792 76.01481000000001 20.511250000000004 76.01481000000001 L 2.5912500000000023 76.01481000000001 C 2.1912500000000024 76.01481000000001 1.9912500000000022 75.81481000000001 1.9912500000000022 75.41481000000002 C 1.9645800000000022 57.11481000000002 1.9645800000000022 38.84481000000002 1.9912500000000022 20.604810000000015 C 2.001250000000002 16.364810000000013 0.9612500000000022 12.594810000000015 0.1512500000000021 8.474810000000014 C -0.41874999999999785 5.574810000000014 0.7512500000000021 3.464810000000014 1.5212500000000022 0.804810000000014 C 1.6503300000000023 0.355480000000014 2.0580300000000022 0.04563000000001405 2.521250000000002 0.044810000000014005 C 14.601250000000002 -0.028519999999986 26.757920000000002 -0.011859999999985993 38.99125 0.09481000000001401 C 42.97792 0.12814000000001402 47.45125 1.221480000000014 52.41125 3.374810000000014 C 64.31125 8.554810000000014 65.90125 26.144810000000014 62.60125 36.78481000000001 C 60.90792 42.27148000000001 57.34125 46.398140000000005 51.901250000000005 49.16481000000001 C 51.587920000000004 49.32481000000001 51.541250000000005 49.54148000000001 51.761250000000004 49.81481000000001 C 55.14125000000001 54.03481000000001 58.51458 58.231480000000005 61.88125 62.40481000000001 C 63.93125 64.93481000000001 66.50125 66.93481000000001 68.91125 69.20481000000001 C 69.17125 69.45148 69.30125 69.75148000000002 69.30125 70.10481000000001 L 69.34125 75.49481000000002 C 69.34125 75.78200000000001 69.11292 76.01481000000001 68.83125 76.01481000000001 L 46.01125 76.01481000000001 C 45.67792 76.01481000000001 45.414579999999994 75.87814000000002 45.22125 75.60481000000001 C 42.27458 71.41148000000001 39.53458 67.12481000000001 37.00125 62.744810000000015 C 36.96792 62.68481000000001 36.91458 62.64814000000001 36.84125 62.634810000000016 z M 44.15125 28.09481 C 45.26125 21.99481 41.64125 17.014809999999997 35.04125 16.93481 C 30.18125 16.88148 25.301249999999996 16.938139999999997 20.401249999999997 17.10481 C 20.03458 17.11148 19.86125 17.29814 19.881249999999998 17.66481 L 20.96125 35.47481 C 20.97458 35.75481 21.124579999999998 35.90148 21.41125 35.914809999999996 C 27.331249999999997 36.174809999999994 38.00125 37.234809999999996 41.89125 33.03480999999999 C 43.01792 31.814809999999994 43.77125 30.168139999999994 44.15125 28.094809999999992 z" stroke-linecap="round"/>
</g>
<g transform="matrix(1 0 0 1 503.8411399954 65.996)" id="5Va8Jy1alxsGWYiyqNC4k">
<path style="stroke: none; stroke-width: 1; stroke-dasharray: none; stroke-linecap: butt; stroke-dashoffset: 0; stroke-linejoin: miter; stroke-miterlimit: 4; fill: rgb(33,33,33); fill-rule: nonzero; opacity: 1;" transform=" translate(-32.1423244681, -38.004)" d="M 21.12118 53.558 C 20.96785 56.518 20.99118 58.54133 21.19118 59.628 C 22.16451 64.72133 22.264509999999998 69.91132999999999 21.49118 75.19800000000001 C 21.42191 75.66305000000001 21.02647 76.00747000000001 20.56118 76.00800000000001 L 2.321180000000002 76.00800000000001 C 2.172060000000002 76.00800000000001 2.051180000000002 75.88712000000001 2.051180000000002 75.73800000000001 C 2.0645100000000016 57.09133000000001 2.0611800000000016 38.42800000000001 2.041180000000002 19.74800000000001 C 2.041180000000002 15.268000000000011 0.9511800000000019 11.138000000000012 0.031180000000002206 6.818000000000012 C -0.021229999999997792 6.589100000000012 -0.007369999999997795 6.3466100000000125 0.07118000000000221 6.118000000000012 L 2.011180000000002 0.488000000000012 C 2.117850000000002 0.17467000000001198 2.334510000000002 0.018000000000012006 2.661180000000002 0.018000000000012006 C 14.381180000000002 -0.001999999999987994 26.094510000000003 -0.005329999999987994 37.80118 0.008000000000012006 C 40.641180000000006 0.014670000000012007 44.20785 0.674670000000012 48.501180000000005 1.988000000000012 C 57.23451000000001 4.654670000000012 62.30118 10.534670000000013 63.70118000000001 19.628000000000014 C 66.84118000000001 40.00800000000001 57.251180000000005 52.27800000000001 36.29118000000001 52.798000000000016 C 31.417850000000012 52.911330000000014 26.53451000000001 52.99800000000002 21.641180000000013 53.058000000000014 C 21.307850000000013 53.064670000000014 21.134510000000013 53.231330000000014 21.121180000000013 53.558000000000014 z M 34.30118 17.008 C 29.747850000000003 16.96133 25.177850000000003 16.97467 20.59118 17.048 C 20.31118 17.048 20.18118 17.188 20.20118 17.468 L 21.11118 35.528 C 21.12451 35.81467 21.27785 35.96133 21.571180000000002 35.967999999999996 C 30.151180000000004 36.138 47.38118 38.628 44.251180000000005 23.497999999999998 C 43.221180000000004 18.528 38.76118 17.057999999999996 34.30118 17.007999999999996 z" stroke-linecap="round"/>
</g>
<g transform="matrix(1 0 0 1 194.5925294118 78.4965396024)" id="nbE5V_4UJk-p2sG-3FwmB">
<path style="stroke: none; stroke-width: 1; stroke-dasharray: none; stroke-linecap: butt; stroke-dashoffset: 0; stroke-linejoin: miter; stroke-miterlimit: 4; fill: rgb(33,33,33); fill-rule: nonzero; opacity: 1;" transform=" translate(-27.2224705882, -26.5211149415)" d="M 19.07994 28.93458 C 22.15994 42.044579999999996 41.00994 38.60458 49.60994 34.864580000000004 C 49.73764 34.81022 49.88418 34.822500000000005 49.99928 34.89721 C 50.11438 34.971920000000004 50.18238 35.0989 50.17994 35.23458 L 50.199940000000005 48.534580000000005 C 50.20096 48.82952 50.017010000000006 49.09346000000001 49.739940000000004 49.19458 C 35.39994 54.48458 10.109940000000002 56.73458 2.2699400000000054 39.60458 C 0.8499400000000055 36.50458 0.09661000000000541 32.76791 0.009940000000005611 28.394579999999998 C -0.07672999999999439 24.221249999999998 0.4032700000000056 20.504579999999997 1.4499400000000056 17.24458 C 7.629940000000005 -2.1054200000000023 32.919940000000004 -3.1554199999999994 48.29994000000001 4.254579999999999 C 48.85504000000001 4.522759999999999 49.27201000000001 5.008619999999999 49.449940000000005 5.594579999999999 L 54.36994000000001 21.48458 C 54.46994000000001 21.81125 54.46994000000001 22.13791 54.36994000000001 22.46458 L 52.669940000000004 28.05458 C 52.57661 28.354580000000002 52.373270000000005 28.50458 52.059940000000005 28.50458 L 19.409940000000006 28.514580000000002 C 19.123270000000005 28.514580000000002 19.013270000000006 28.654580000000003 19.079940000000008 28.934580000000004 z M 33.39994 15.09458 C 33.33252 14.81236 33.11216 14.592 32.82994 14.52458 C 30.77661 14.02458 28.69661 13.87791 26.58994 14.08458 C 24.343269999999997 14.311250000000001 22.566609999999997 15.34458 21.25994 17.18458 L 19.63994 19.45458 C 18.39994 21.19458 18.83994 21.91125 20.95994 21.60458 L 34.10994 19.684579999999997 C 34.33661 19.651249999999997 34.42327 19.52125 34.36994 19.294579999999996 z" stroke-linecap="round"/>
</g>
<g transform="matrix(1 0 0 1 256.0012323266 78.4325251832)" id="SbyezuPVA6ed3elnU6O-L">
<path style="stroke: none; stroke-width: 1; stroke-dasharray: none; stroke-linecap: butt; stroke-dashoffset: 0; stroke-linejoin: miter; stroke-miterlimit: 4; fill: rgb(33,33,33); fill-rule: nonzero; opacity: 1;" transform=" translate(-27.719213298, -26.5295581502)" d="M 1.37798 31.11703 C 5.50798 22.81703 17.62798 21.14703 25.637980000000002 22.627029999999998 C 28.437980000000003 23.147029999999997 30.967980000000004 24.647029999999997 33.48798 26.037029999999998 C 33.69652 26.15083 33.94977 26.14745 34.15341 26.028149999999997 C 34.35705 25.908849999999997 34.48057 25.691489999999998 34.47798 25.457029999999996 C 34.47798 20.357029999999995 34.16798 15.427029999999997 27.707980000000003 15.177029999999997 C 19.427980000000005 14.857029999999996 11.431310000000003 16.19036 3.7179800000000043 19.177029999999995 C 3.3913100000000043 19.303699999999996 3.227980000000004 19.190359999999995 3.227980000000004 18.837029999999995 L 3.2179800000000043 3.877029999999994 C 3.2179800000000043 3.5903599999999942 3.3579800000000044 3.4070299999999945 3.637980000000004 3.3270299999999944 C 15.657980000000004 -0.1529700000000056 27.187980000000003 -0.902970000000006 38.22798000000001 1.0770299999999944 C 48.14131000000001 2.8636999999999944 53.24465000000001 9.033699999999994 53.53798000000001 19.587029999999995 C 53.64798000000001 23.777029999999996 52.88798000000001 32.067029999999995 54.15798000000001 38.287029999999994 C 54.53131000000001 40.100359999999995 54.894650000000006 41.91369999999999 55.24798000000001 43.72702999999999 C 55.85798000000001 46.83702999999999 54.89798000000001 48.857029999999995 53.847980000000014 51.647029999999994 C 53.734650000000016 51.94702999999999 53.517980000000016 52.09703 53.197980000000015 52.09703 L 35.96798000000001 52.09703 C 35.64131000000001 52.09703 35.47798000000001 51.93035999999999 35.47798000000001 51.59703 L 35.46798000000001 47.33703 C 35.46905000000001 46.99586 35.27062000000001 46.685559999999995 34.96047000000001 46.54341 C 34.65033000000001 46.40126 34.285720000000005 46.45351 34.02798000000001 46.67703 C 27.027980000000007 52.6837 18.931310000000007 54.45036 9.737980000000007 51.97703 C 1.127980000000008 49.64703 -0.8520199999999925 42.25703 0.2979800000000079 34.22703 C 0.4313100000000079 33.32036 0.791310000000008 32.283699999999996 1.377980000000008 31.11703 z M 33.91798 38.26703 C 34.27131 38.1537 34.46798 37.91036 34.50798 37.53703 C 34.787980000000005 34.7837 33.51798 33.10036 30.697980000000005 32.487030000000004 C 26.907980000000006 31.657030000000006 18.387980000000006 31.187030000000004 20.457980000000006 37.517030000000005 C 20.697930000000007 38.25784000000001 21.325130000000005 38.812380000000005 22.097980000000007 38.96703000000001 C 26.097980000000007 39.74036000000001 30.037980000000008 39.50703000000001 33.91798000000001 38.267030000000005 z" stroke-linecap="round"/>
</g>
</svg>